<?xml version="1.0" encoding="UTF-8" standalone="no"?>
<svg
   version="1.0"
   width="445pt"
   height="259pt"
   viewBox="0 0 445 259"
   preserveAspectRatio="xMidYMid"
   id="svg2"
   sodipodi:docname="bacalhau.svg"
   inkscape:version="1.3.2 (091e20ef0f, 2023-11-25)"
   xmlns:inkscape="http://www.inkscape.org/namespaces/inkscape"
   xmlns:sodipodi="http://sodipodi.sourceforge.net/DTD/sodipodi-0.dtd"
   xmlns="http://www.w3.org/2000/svg"
   xmlns:svg="http://www.w3.org/2000/svg">
  <defs
     id="defs2" />
  <sodipodi:namedview
     id="namedview2"
     pagecolor="#ffffff"
     bordercolor="#000000"
     borderopacity="0.25"
     inkscape:showpageshadow="2"
     inkscape:pageopacity="0.0"
     inkscape:pagecheckerboard="0"
     inkscape:deskcolor="#d1d1d1"
     inkscape:document-units="pt"
     showgrid="false"
     inkscape:zoom="1.38625"
     inkscape:cx="400"
     inkscape:cy="226.87106"
     inkscape:window-width="3432"
     inkscape:window-height="1299"
     inkscape:window-x="4"
     inkscape:window-y="36"
     inkscape:window-maximized="0"
     inkscape:current-layer="g2" />
  <g
     transform="matrix(0.14618946,0,0,-0.14618946,-78.775301,751.36569)"
     fill="#000000"
     stroke="none"
     id="g2">
    <path
       d="m 1751.3023,5132.4369 c -40,-10 -86,-56 -145,-146 -76,-113 -140,-246 -140,-286 0,-28 7,-34 75,-72 41,-22 75,-43 75,-46 0,-13 -219,-259 -298,-335 -98,-95 -146,-124 -183,-115 -13,4 -62,34 -108,67 -165.99999,118 -307.99999,180 -415.99999,180 -91,0 -93,7 75,-275 59,-99 110,-189 114,-201 8,-25 -16,-71 -118,-231 -88,-138 -94,-167 -33,-178 69,-13 240,29 347,86 47.99999,25 80.99999,49 193.99999,142 22,18 25,17 132,-27 114,-47 269,-95 367,-116 l 58,-12 -31,-54 c -52,-92 -40,-112 76,-125 147,-16 309,21 453,104 60,34 93,46 156,56 289,44 598,177 808,347 l 68,55 14,-35 c 29,-68 12,-141 -42,-185 -40,-33 -39,-47 3,-37 88,23 139,159 99,270 l -14,39 65,71 c 105,116 99,146 -27,146 -98,0 -165,14 -253,52 -56,24 -73,28 -92,19 -30,-13 -41,-54 -21,-84 21,-32 104,-75 187,-96 l 72,-18 -59,-52 c -128,-115 -361,-248 -538,-307 -414,-137 -894,-112 -1324,70 -82,35 -234,121 -252,143 -13,15 -11,16 16,9 64,-15 276,-19 352,-6 226,36 428,144 738,395 119,97 174,135 195,135 8,0 37,-22 65,-49 101,-100 225,-131 385,-97 130,28 348,148 509,282 36,29 66,52 68,50 11,-11 -81,-156 -149,-235 -21,-24 -38,-50 -38,-57 0,-19 29,-44 51,-44 25,0 125,101 179,180 58,85 112,212 108,253 -3,29 -10,36 -78,69 -242,121 -607,185 -912,160 -79,-7 -171,-17 -205,-24 l -62,-11 -110,51 c -131,61 -237,98 -339,118 -76,15 -84,15 -117,7 z m 1152,-297 c 69,-36 113,-112 113,-196 0,-129 -94,-220 -229,-222 -176,-2 -286,185 -197,337 59,100 204,138 313,81 z"
       id="path1" />
    <path
       d="m 2786.3023,4751.4369 c -96,-43 -109,-157 -24,-213 83,-55 197,26 178,127 -8,43 -17,49 -39,24 -23,-25 -41,-25 -55,-1 -11,22 -4,51 14,51 6,0 4,5 -4,10 -17,11 -48,12 -70,2 z"
       id="path2" />
  </g>
</svg>
