<svg width="100" height="16" viewBox="0 0 100 16" fill="none" xmlns="http://www.w3.org/2000/svg">
<g clip-path="url(#clip0_17_17)">
<path d="M91.7734 13.8352L98.9479 9.66445V9.56879L91.7734 5.39804V4.25012L100 9.07136V10.1427L91.7734 14.964V13.8352Z" fill="#F6F6F6"/>
<path d="M84.4532 14.9639C83.9175 14.9639 83.5221 14.8236 83.267 14.543C83.0246 14.2497 82.9035 13.8607 82.9035 13.376V6.02933H79.4023V5.09187H82.1765C82.4571 5.09187 82.6548 5.03447 82.7696 4.91968C82.8844 4.80489 82.9417 4.60719 82.9417 4.32659V1.60986H83.994V5.09187H88.7004V6.02933H83.994V14.0265H88.7004V14.9639H84.4532Z" fill="#F6F6F6"/>
<path d="M73.0962 15.1935C71.7187 15.1935 70.6346 14.7471 69.8438 13.8543C69.0658 12.9487 68.6768 11.6796 68.6768 10.047C68.6768 9.23075 68.7788 8.50374 68.9829 7.86601C69.1869 7.21553 69.4739 6.67346 69.8438 6.2398C70.2264 5.79339 70.6856 5.45539 71.2213 5.22581C71.757 4.98347 72.3501 4.8623 73.0006 4.8623C73.6638 4.8623 74.2569 4.98347 74.7798 5.22581C75.3028 5.45539 75.7428 5.78701 76.0999 6.22067C76.4698 6.65432 76.7504 7.17089 76.9417 7.77035C77.1331 8.36982 77.2287 9.03306 77.2287 9.76007V10.2384H69.8247V10.7167C69.8247 11.7753 70.1116 12.6299 70.6856 13.2803C71.2596 13.9181 72.0631 14.2369 73.0962 14.2369C73.8232 14.2369 74.4418 14.0711 74.952 13.7395C75.475 13.4079 75.8767 12.9168 76.1573 12.2663L76.98 12.7829C76.6866 13.5099 76.2083 14.0966 75.5451 14.543C74.8819 14.9767 74.0656 15.1935 73.0962 15.1935ZM73.0006 5.78064C72.5159 5.78064 72.0759 5.86992 71.6805 6.04848C71.2978 6.21429 70.9662 6.45025 70.6856 6.75636C70.4178 7.06247 70.2073 7.43235 70.0543 7.86601C69.9012 8.29967 69.8247 8.77796 69.8247 9.3009V9.41569H76.0617V9.26264C76.0617 8.19125 75.7874 7.34307 75.239 6.7181C74.7033 6.09312 73.9572 5.78064 73.0006 5.78064Z" fill="#F6F6F6"/>
<path d="M61.682 15.1935C60.6872 15.1935 59.8199 15.0277 59.0801 14.6961C58.3531 14.3517 57.7217 13.8734 57.186 13.2612L57.9322 12.6107C58.4169 13.1719 58.9589 13.5928 59.5584 13.8734C60.1579 14.1413 60.8721 14.2752 61.7012 14.2752C62.5685 14.2752 63.27 14.1094 63.8057 13.7778C64.3541 13.4461 64.6283 12.936 64.6283 12.2472C64.6283 11.9411 64.5709 11.6924 64.4562 11.5011C64.3541 11.297 64.2074 11.1312 64.0161 11.0036C63.8248 10.8761 63.6016 10.7804 63.3465 10.7167C63.0914 10.6401 62.8108 10.5827 62.5047 10.5445L60.9741 10.334C60.5915 10.283 60.2025 10.2129 59.8071 10.1236C59.4245 10.0215 59.0737 9.87486 58.7549 9.68354C58.4487 9.49222 58.1936 9.23713 57.9896 8.91827C57.7983 8.5994 57.7026 8.19125 57.7026 7.69382C57.7026 7.20915 57.7983 6.78825 57.9896 6.43112C58.1809 6.07399 58.4487 5.78064 58.7931 5.55105C59.1375 5.32147 59.5393 5.14928 59.9984 5.03449C60.4703 4.9197 60.9742 4.8623 61.5098 4.8623C62.4282 4.8623 63.1998 5.01536 63.8248 5.32147C64.4625 5.61483 64.9982 5.98471 65.4319 6.43112L64.7049 7.11987C64.5646 6.96681 64.3988 6.81376 64.2074 6.6607C64.0289 6.49489 63.8057 6.34821 63.5378 6.22067C63.2827 6.09312 62.983 5.99109 62.6386 5.91456C62.2943 5.82528 61.8989 5.78064 61.4524 5.78064C60.6106 5.78064 59.9538 5.93369 59.4819 6.2398C59.0227 6.54591 58.7931 7.00508 58.7931 7.6173C58.7931 7.92341 58.8441 8.1785 58.9462 8.38257C59.061 8.57389 59.214 8.73332 59.4053 8.86087C59.5967 8.98842 59.8199 9.09045 60.075 9.16698C60.33 9.23075 60.6043 9.28177 60.8976 9.32003L62.4473 9.54962C62.8299 9.61339 63.2126 9.6963 63.5952 9.79833C63.9906 9.88762 64.3414 10.0279 64.6475 10.2192C64.9663 10.4106 65.2214 10.6656 65.4127 10.9845C65.6041 11.2906 65.6997 11.6924 65.6997 12.1898C65.6997 12.6872 65.5977 13.1209 65.3936 13.4908C65.2023 13.8607 64.9281 14.1732 64.5709 14.4283C64.2266 14.6833 63.8057 14.8747 63.3082 15.0022C62.8108 15.1298 62.2687 15.1935 61.682 15.1935Z" fill="#F6F6F6"/>
<path d="M50.1529 15.1935C48.7754 15.1935 47.6912 14.7471 46.9004 13.8543C46.1224 12.9487 45.7334 11.6796 45.7334 10.047C45.7334 9.23075 45.8354 8.50374 46.0395 7.86601C46.2436 7.21553 46.5306 6.67346 46.9004 6.2398C47.2831 5.79339 47.7422 5.45539 48.2779 5.22581C48.8136 4.98347 49.4067 4.8623 50.0572 4.8623C50.7204 4.8623 51.3135 4.98347 51.8365 5.22581C52.3594 5.45539 52.7994 5.78701 53.1566 6.22067C53.5265 6.65432 53.8071 7.17089 53.9984 7.77035C54.1897 8.36982 54.2854 9.03306 54.2854 9.76007V10.2384H46.8813V10.7167C46.8813 11.7753 47.1683 12.6299 47.7422 13.2803C48.3162 13.9181 49.1197 14.2369 50.1529 14.2369C50.8799 14.2369 51.4985 14.0711 52.0087 13.7395C52.5316 13.4079 52.9334 12.9168 53.214 12.2663L54.0366 12.7829C53.7433 13.5099 53.265 14.0966 52.6018 14.543C51.9385 14.9767 51.1222 15.1935 50.1529 15.1935ZM50.0572 5.78064C49.5725 5.78064 49.1325 5.86992 48.7371 6.04848C48.3545 6.21429 48.0228 6.45025 47.7422 6.75636C47.4744 7.06247 47.264 7.43235 47.1109 7.86601C46.9578 8.29967 46.8813 8.77796 46.8813 9.3009V9.41569H53.1183V9.26264C53.1183 8.19125 52.8441 7.34307 52.2956 6.7181C51.7599 6.09312 51.0138 5.78064 50.0572 5.78064Z" fill="#F6F6F6"/>
<path d="M41.1304 13.3952H41.073C40.7924 13.9309 40.397 14.3645 39.8868 14.6961C39.3894 15.0278 38.7644 15.1936 38.0119 15.1936C36.7747 15.1936 35.8117 14.7535 35.123 13.8735C34.4342 12.9807 34.0898 11.6988 34.0898 10.028C34.0898 8.35712 34.4342 7.08166 35.123 6.20159C35.8117 5.30877 36.7747 4.86236 38.0119 4.86236C38.7644 4.86236 39.3894 5.02817 39.8868 5.35979C40.397 5.69141 40.7924 6.12506 41.073 6.66076H41.1304V0.806396H42.2209V14.964H41.1304V13.3952ZM38.3754 14.2179C38.7453 14.2179 39.096 14.1668 39.4276 14.0648C39.7593 13.9628 40.0526 13.8161 40.3077 13.6248C40.5628 13.4334 40.7605 13.1975 40.9008 12.9169C41.0539 12.6363 41.1304 12.3238 41.1304 11.9794V8.07652C41.1304 7.73214 41.0539 7.41965 40.9008 7.13905C40.7605 6.85845 40.5628 6.62249 40.3077 6.43117C40.0526 6.23985 39.7593 6.09318 39.4276 5.99114C39.096 5.8891 38.7453 5.83808 38.3754 5.83808C37.3805 5.83808 36.6089 6.15057 36.0604 6.77555C35.5247 7.40052 35.2569 8.25508 35.2569 9.33922V10.7167C35.2569 11.8009 35.5247 12.6554 36.0604 13.2804C36.6089 13.9054 37.3805 14.2179 38.3754 14.2179Z" fill="#F6F6F6"/>
<path d="M27.0566 15.1935C25.7046 15.1935 24.646 14.7407 23.8807 13.8352C23.1282 12.9296 22.752 11.6605 22.752 10.0279C22.752 8.39533 23.1282 7.12625 23.8807 6.22067C24.646 5.31509 25.7046 4.8623 27.0566 4.8623C28.4086 4.8623 29.4609 5.31509 30.2134 6.22067C30.9787 7.12625 31.3613 8.39533 31.3613 10.0279C31.3613 11.6605 30.9787 12.9296 30.2134 13.8352C29.4609 14.7407 28.4086 15.1935 27.0566 15.1935ZM27.0566 14.2369C28.026 14.2369 28.7913 13.9308 29.3525 13.3186C29.9137 12.7064 30.1943 11.8136 30.1943 10.6401V9.41569C30.1943 8.24227 29.9137 7.34945 29.3525 6.73723C28.7913 6.12501 28.026 5.8189 27.0566 5.8189C26.0873 5.8189 25.322 6.12501 24.7608 6.73723C24.1996 7.34945 23.919 8.24227 23.919 9.41569V10.6401C23.919 11.8136 24.1996 12.7064 24.7608 13.3186C25.322 13.9308 26.0873 14.2369 27.0566 14.2369Z" fill="#F6F6F6"/>
<path d="M15.9674 15.1935C14.5899 15.1935 13.5249 14.7407 12.7723 13.8352C12.0198 12.9296 11.6436 11.6605 11.6436 10.0279C11.6436 8.39533 12.0198 7.12625 12.7723 6.22067C13.5376 5.31509 14.5962 4.8623 15.9482 4.8623C16.8666 4.8623 17.6191 5.07276 18.2058 5.49366C18.7925 5.9018 19.2134 6.43112 19.4685 7.0816L18.5884 7.52164C18.3844 6.97319 18.0591 6.55229 17.6127 6.25893C17.1663 5.96558 16.6115 5.8189 15.9482 5.8189C14.9406 5.8189 14.1626 6.14414 13.6141 6.79462C13.0784 7.43235 12.8106 8.28054 12.8106 9.33917V10.7167C12.8106 11.7753 13.0784 12.6299 13.6141 13.2803C14.1626 13.9181 14.947 14.2369 15.9674 14.2369C16.6689 14.2369 17.2556 14.0775 17.7275 13.7586C18.1994 13.4398 18.5629 12.9934 18.818 12.4194L19.6216 12.936C19.341 13.5864 18.9009 14.1285 18.3015 14.5622C17.702 14.9831 16.924 15.1935 15.9674 15.1935Z" fill="#F6F6F6"/>
<path d="M0 10.1409V9.06953L8.22671 4.24829V5.37707L1.05225 9.54782V9.64349L8.22671 13.8142V14.9622L0 10.1409Z" fill="#F6F6F6"/>
</g>
<defs>
<clipPath id="clip0_17_17">
<rect width="100" height="14.3872" fill="white" transform="translate(0 0.806396)"/>
</clipPath>
</defs>
</svg>
