<?xml version="1.0" encoding="UTF-8" standalone="no"?>
<svg
   width="100"
   height="16"
   viewBox="0 0 100 16"
   fill="none"
   version="1.1"
   id="svg9"
   sodipodi:docname="codeset.svg"
   inkscape:version="1.4.2 (ebf0e940d0, 2025-05-08)"
   xmlns:inkscape="http://www.inkscape.org/namespaces/inkscape"
   xmlns:sodipodi="http://sodipodi.sourceforge.net/DTD/sodipodi-0.dtd"
   xmlns="http://www.w3.org/2000/svg"
   xmlns:svg="http://www.w3.org/2000/svg">
  <sodipodi:namedview
     id="namedview9"
     pagecolor="#ffffff"
     bordercolor="#000000"
     borderopacity="0.25"
     inkscape:showpageshadow="2"
     inkscape:pageopacity="0.0"
     inkscape:pagecheckerboard="0"
     inkscape:deskcolor="#d1d1d1"
     inkscape:zoom="3.0144591"
     inkscape:cx="52.911648"
     inkscape:cy="-67.010363"
     inkscape:window-width="956"
     inkscape:window-height="1032"
     inkscape:window-x="960"
     inkscape:window-y="22"
     inkscape:window-maximized="1"
     inkscape:current-layer="svg9">
    <inkscape:page
       x="0"
       y="0"
       width="100"
       height="16"
       id="page2"
       margin="0"
       bleed="0" />
  </sodipodi:namedview>
  <g
     clip-path="url(#clip0_17_17)"
     id="g9"
     style="fill:#1a1a1a">
    <path
       d="M 91.7734,13.8352 98.9479,9.66445 V 9.56879 L 91.7734,5.39804 V 4.25012 L 100,9.07136 v 1.07134 l -8.2266,4.8213 z"
       fill="#F6F6F6"
       id="path1"
       style="fill:#1a1a1a" />
    <path
       d="m 84.4532,14.9639 c -0.5357,0 -0.9311,-0.1403 -1.1862,-0.4209 -0.2424,-0.2933 -0.3635,-0.6823 -0.3635,-1.167 V 6.02933 H 79.4023 V 5.09187 h 2.7742 c 0.2806,0 0.4783,-0.0574 0.5931,-0.17219 0.1148,-0.11479 0.1721,-0.31249 0.1721,-0.59309 V 1.60986 h 1.0523 v 3.48201 h 4.7064 V 6.02933 H 83.994 v 7.99717 h 4.7064 v 0.9374 z"
       fill="#F6F6F6"
       id="path2"
       style="fill:#1a1a1a" />
    <path
       d="m 73.0962,15.1935 c -1.3775,0 -2.4616,-0.4464 -3.2524,-1.3392 -0.778,-0.9056 -1.167,-2.1747 -1.167,-3.8073 0,-0.81625 0.102,-1.54326 0.3061,-2.18099 0.204,-0.65048 0.491,-1.19255 0.8609,-1.62621 0.3826,-0.44641 0.8418,-0.78441 1.3775,-1.01399 0.5357,-0.24234 1.1288,-0.36351 1.7793,-0.36351 0.6632,0 1.2563,0.12117 1.7792,0.36351 0.523,0.22958 0.963,0.5612 1.3201,0.99486 0.3699,0.43365 0.6505,0.95022 0.8418,1.54968 0.1914,0.59947 0.287,1.26271 0.287,1.98972 v 0.47833 h -7.404 v 0.4783 c 0,1.0586 0.2869,1.9132 0.8609,2.5636 0.574,0.6378 1.3775,0.9566 2.4106,0.9566 0.727,0 1.3456,-0.1658 1.8558,-0.4974 0.523,-0.3316 0.9247,-0.8227 1.2053,-1.4732 l 0.8227,0.5166 c -0.2934,0.727 -0.7717,1.3137 -1.4349,1.7601 -0.6632,0.4337 -1.4795,0.6505 -2.4489,0.6505 z M 73.0006,5.78064 c -0.4847,0 -0.9247,0.08928 -1.3201,0.26784 -0.3827,0.16581 -0.7143,0.40177 -0.9949,0.70788 -0.2678,0.30611 -0.4783,0.67599 -0.6313,1.10965 -0.1531,0.43366 -0.2296,0.91195 -0.2296,1.43489 v 0.11479 h 6.237 V 9.26264 C 76.0617,8.19125 75.7874,7.34307 75.239,6.7181 74.7033,6.09312 73.9572,5.78064 73.0006,5.78064 Z"
       fill="#F6F6F6"
       id="path3"
       style="fill:#1a1a1a" />
    <path
       d="m 61.682,15.1935 c -0.9948,0 -1.8621,-0.1658 -2.6019,-0.4974 -0.727,-0.3444 -1.3584,-0.8227 -1.8941,-1.4349 l 0.7462,-0.6505 c 0.4847,0.5612 1.0267,0.9821 1.6262,1.2627 0.5995,0.2679 1.3137,0.4018 2.1428,0.4018 0.8673,0 1.5688,-0.1658 2.1045,-0.4974 0.5484,-0.3317 0.8226,-0.8418 0.8226,-1.5306 0,-0.3061 -0.0574,-0.5548 -0.1721,-0.7461 -0.1021,-0.2041 -0.2488,-0.3699 -0.4401,-0.4975 -0.1913,-0.1275 -0.4145,-0.2232 -0.6696,-0.2869 -0.2551,-0.0766 -0.5357,-0.134 -0.8418,-0.1722 L 60.9741,10.334 C 60.5915,10.283 60.2025,10.2129 59.8071,10.1236 59.4245,10.0215 59.0737,9.87486 58.7549,9.68354 58.4487,9.49222 58.1936,9.23713 57.9896,8.91827 57.7983,8.5994 57.7026,8.19125 57.7026,7.69382 c 0,-0.48467 0.0957,-0.90557 0.287,-1.2627 0.1913,-0.35713 0.4591,-0.65048 0.8035,-0.88007 0.3444,-0.22958 0.7462,-0.40177 1.2053,-0.51656 0.4719,-0.11479 0.9758,-0.17219 1.5114,-0.17219 0.9184,0 1.69,0.15306 2.315,0.45917 0.6377,0.29336 1.1734,0.66324 1.6071,1.10965 l -0.727,0.68875 C 64.5646,6.96681 64.3988,6.81376 64.2074,6.6607 64.0289,6.49489 63.8057,6.34821 63.5378,6.22067 63.2827,6.09312 62.983,5.99109 62.6386,5.91456 62.2943,5.82528 61.8989,5.78064 61.4524,5.78064 c -0.8418,0 -1.4986,0.15305 -1.9705,0.45916 -0.4592,0.30611 -0.6888,0.76528 -0.6888,1.3775 0,0.30611 0.051,0.5612 0.1531,0.76527 0.1148,0.19132 0.2678,0.35075 0.4591,0.4783 0.1914,0.12755 0.4146,0.22958 0.6697,0.30611 0.255,0.06377 0.5293,0.11479 0.8226,0.15305 l 1.5497,0.22959 c 0.3826,0.06377 0.7653,0.14668 1.1479,0.24871 0.3954,0.08929 0.7462,0.22957 1.0523,0.42087 0.3188,0.1914 0.5739,0.4464 0.7652,0.7653 0.1914,0.3061 0.287,0.7079 0.287,1.2053 0,0.4974 -0.102,0.9311 -0.3061,1.301 -0.1913,0.3699 -0.4655,0.6824 -0.8227,0.9375 -0.3443,0.255 -0.7652,0.4464 -1.2627,0.5739 -0.4974,0.1276 -1.0395,0.1913 -1.6262,0.1913 z"
       fill="#F6F6F6"
       id="path4"
       style="fill:#1a1a1a" />
    <path
       d="m 50.1529,15.1935 c -1.3775,0 -2.4617,-0.4464 -3.2525,-1.3392 -0.778,-0.9056 -1.167,-2.1747 -1.167,-3.8073 0,-0.81625 0.102,-1.54326 0.3061,-2.18099 0.2041,-0.65048 0.4911,-1.19255 0.8609,-1.62621 0.3827,-0.44641 0.8418,-0.78441 1.3775,-1.01399 0.5357,-0.24234 1.1288,-0.36351 1.7793,-0.36351 0.6632,0 1.2563,0.12117 1.7793,0.36351 0.5229,0.22958 0.9629,0.5612 1.3201,0.99486 0.3699,0.43365 0.6505,0.95022 0.8418,1.54968 0.1913,0.59947 0.287,1.26271 0.287,1.98972 v 0.47833 h -7.4041 v 0.4783 c 0,1.0586 0.287,1.9132 0.8609,2.5636 0.574,0.6378 1.3775,0.9566 2.4107,0.9566 0.727,0 1.3456,-0.1658 1.8558,-0.4974 0.5229,-0.3316 0.9247,-0.8227 1.2053,-1.4732 l 0.8226,0.5166 c -0.2933,0.727 -0.7716,1.3137 -1.4348,1.7601 -0.6633,0.4337 -1.4796,0.6505 -2.4489,0.6505 z M 50.0572,5.78064 c -0.4847,0 -0.9247,0.08928 -1.3201,0.26784 -0.3826,0.16581 -0.7143,0.40177 -0.9949,0.70788 -0.2678,0.30611 -0.4782,0.67599 -0.6313,1.10965 -0.1531,0.43366 -0.2296,0.91195 -0.2296,1.43489 v 0.11479 h 6.237 V 9.26264 C 53.1183,8.19125 52.8441,7.34307 52.2956,6.7181 51.7599,6.09312 51.0138,5.78064 50.0572,5.78064 Z"
       fill="#F6F6F6"
       id="path5"
       style="fill:#1a1a1a" />
    <path
       d="M 41.1304,13.3952 H 41.073 c -0.2806,0.5357 -0.676,0.9693 -1.1862,1.3009 -0.4974,0.3317 -1.1224,0.4975 -1.8749,0.4975 -1.2372,0 -2.2002,-0.4401 -2.8889,-1.3201 -0.6888,-0.8928 -1.0332,-2.1747 -1.0332,-3.8455 0,-1.67088 0.3444,-2.94634 1.0332,-3.82641 0.6887,-0.89282 1.6517,-1.33923 2.8889,-1.33923 0.7525,0 1.3775,0.16581 1.8749,0.49743 0.5102,0.33162 0.9056,0.76527 1.1862,1.30097 h 0.0574 V 0.806396 h 1.0905 V 14.964 h -1.0905 z m -2.755,0.8227 c 0.3699,0 0.7206,-0.0511 1.0522,-0.1531 0.3317,-0.102 0.625,-0.2487 0.8801,-0.44 0.2551,-0.1914 0.4528,-0.4273 0.5931,-0.7079 0.1531,-0.2806 0.2296,-0.5931 0.2296,-0.9375 V 8.07652 c 0,-0.34438 -0.0765,-0.65687 -0.2296,-0.93747 C 40.7605,6.85845 40.5628,6.62249 40.3077,6.43117 40.0526,6.23985 39.7593,6.09318 39.4276,5.99114 39.096,5.8891 38.7453,5.83808 38.3754,5.83808 c -0.9949,0 -1.7665,0.31249 -2.315,0.93747 -0.5357,0.62497 -0.8035,1.47953 -0.8035,2.56367 v 1.37748 c 0,1.0842 0.2678,1.9387 0.8035,2.5637 0.5485,0.625 1.3201,0.9375 2.315,0.9375 z"
       fill="#F6F6F6"
       id="path6"
       style="fill:#1a1a1a" />
    <path
       d="m 27.0566,15.1935 c -1.352,0 -2.4106,-0.4528 -3.1759,-1.3583 -0.7525,-0.9056 -1.1287,-2.1747 -1.1287,-3.8073 0,-1.63257 0.3762,-2.90165 1.1287,-3.80723 0.7653,-0.90558 1.8239,-1.35837 3.1759,-1.35837 1.352,0 2.4043,0.45279 3.1568,1.35837 0.7653,0.90558 1.1479,2.17466 1.1479,3.80723 0,1.6326 -0.3826,2.9017 -1.1479,3.8073 -0.7525,0.9055 -1.8048,1.3583 -3.1568,1.3583 z m 0,-0.9566 c 0.9694,0 1.7347,-0.3061 2.2959,-0.9183 0.5612,-0.6122 0.8418,-1.505 0.8418,-2.6785 V 9.41569 c 0,-1.17342 -0.2806,-2.06624 -0.8418,-2.67846 C 28.7913,6.12501 28.026,5.8189 27.0566,5.8189 c -0.9693,0 -1.7346,0.30611 -2.2958,0.91833 -0.5612,0.61222 -0.8418,1.50504 -0.8418,2.67846 v 1.22441 c 0,1.1735 0.2806,2.0663 0.8418,2.6785 0.5612,0.6122 1.3265,0.9183 2.2958,0.9183 z"
       fill="#F6F6F6"
       id="path7"
       style="fill:#1a1a1a" />
    <path
       d="m 15.9674,15.1935 c -1.3775,0 -2.4425,-0.4528 -3.1951,-1.3583 -0.7525,-0.9056 -1.1287,-2.1747 -1.1287,-3.8073 0,-1.63257 0.3762,-2.90165 1.1287,-3.80723 0.7653,-0.90558 1.8239,-1.35837 3.1759,-1.35837 0.9184,0 1.6709,0.21046 2.2576,0.63136 0.5867,0.40814 1.0076,0.93746 1.2627,1.58794 L 18.5884,7.52164 C 18.3844,6.97319 18.0591,6.55229 17.6127,6.25893 17.1663,5.96558 16.6115,5.8189 15.9482,5.8189 c -1.0076,0 -1.7856,0.32524 -2.3341,0.97572 -0.5357,0.63773 -0.8035,1.48592 -0.8035,2.54455 v 1.37753 c 0,1.0586 0.2678,1.9132 0.8035,2.5636 0.5485,0.6378 1.3329,0.9566 2.3533,0.9566 0.7015,0 1.2882,-0.1594 1.7601,-0.4783 0.4719,-0.3188 0.8354,-0.7652 1.0905,-1.3392 l 0.8036,0.5166 c -0.2806,0.6504 -0.7207,1.1925 -1.3201,1.6262 -0.5995,0.4209 -1.3775,0.6313 -2.3341,0.6313 z"
       fill="#F6F6F6"
       id="path8"
       style="fill:#1a1a1a" />
    <path
       d="M 0,10.1409 V 9.06953 L 8.22671,4.24829 V 5.37707 L 1.05225,9.54782 v 0.09567 l 7.17446,4.17071 v 1.148 z"
       fill="#F6F6F6"
       id="path9"
       style="fill:#1a1a1a" />
  </g>
  <defs
     id="defs9">
    <clipPath
       id="clip0_17_17">
      <rect
         width="100"
         height="14.3872"
         fill="#ffffff"
         transform="translate(0,0.806396)"
         id="rect9"
         x="0"
         y="0" />
    </clipPath>
  </defs>
</svg>
